name Walk9_EMG.mot
datacolumns 17
datarows 11
range 2.47100000 2.48100000
endheader
                time	            vasmed_r	            vaslat_r	            recfem_r	               gra_r	               sar_r	            tibant_r	           perlong_r	            addmag_r	           semimem_r	          bicfemlh_r	            gasmed_r	            gaslat_r	               sol_r	               tfl_r	              gmed_r	              gmax_r	
          2.47100000	          0.04651483	          0.08920643	          0.08484943	          0.40333000	          0.74524393	          0.05484052	          0.01322612	          0.17654714	          0.48577487	          0.24652723	          0.29187398	          0.08463113	          0.03993932	          0.18269384	          0.19591862	          0.17351302	
          2.47200000	          0.04623031	          0.08898344	          0.08514816	          0.40752479	          0.75338665	          0.05080762	          0.01344905	          0.17729434	          0.49453505	          0.24839937	          0.28478185	          0.08449838	          0.03941813	          0.18259525	          0.19498532	          0.17202726	
          2.47300000	          0.04594572	          0.08874097	          0.08548325	          0.41170148	          0.76100456	          0.04708510	          0.01368096	          0.17794984	          0.50357211	          0.25004002	          0.27808975	          0.08437274	          0.03888225	          0.18243751	          0.19403552	          0.17062635	
          2.47400000	          0.04566388	          0.08848634	          0.08585542	          0.41585593	          0.76809134	          0.04367194	          0.01392238	          0.17851589	          0.51289299	          0.25145275	          0.27178528	          0.08425930	          0.03833292	          0.18222947	          0.19307075	          0.16931377	
          2.47500000	          0.04538801	          0.08822711	          0.08626424	          0.41998778	          0.77463978	          0.04056566	          0.01417355	          0.17899652	          0.52249779	          0.25264042	          0.26585344	          0.08416208	          0.03777159	          0.18197965	          0.19209248	          0.16809135	
          2.47600000	          0.04512156	          0.08796986	          0.08670810	          0.42409692	          0.78064102	          0.03776249	          0.01443446	          0.17939704	          0.53237306	          0.25360507	          0.26027707	          0.08408512	          0.03719992	          0.18169595	          0.19110201	          0.16695967	
          2.47700000	          0.04486811	          0.08771984	          0.08718488	          0.42818359	          0.78608303	          0.03525744	          0.01470475	          0.17972287	          0.54249283	          0.25434766	          0.25503731	          0.08403423	          0.03661960	          0.18138548	          0.19010054	          0.16591848	
          2.47800000	          0.04463127	          0.08748110	          0.08769295	          0.43224960	          0.79095007	          0.03304444	          0.01498373	          0.17997852	          0.55282299	          0.25486821	          0.25011434	          0.08401748	          0.03603220	          0.18105396	          0.18908915	          0.16496711	
          2.47900000	          0.04441441	          0.08725682	          0.08823157	          0.43629688	          0.79522297	          0.03111639	          0.01527039	          0.18016743	          0.56332479	          0.25516639	          0.24548828	          0.08404380	          0.03543925	          0.18070555	          0.18806851	          0.16410495	
          2.48000000	          0.04422043	          0.08704961	          0.08880032	          0.44032529	          0.79887975	          0.02946513	          0.01556343	          0.18029246	          0.57395666	          0.25524248	          0.24114029	          0.08412132	          0.03484228	          0.18034313	          0.18703862	          0.16333208	
          2.48100000	          0.04405169	          0.08686145	          0.08939862	          0.44433252	          0.80189627	          0.02808133	          0.01586132	          0.18035594	          0.58467574	          0.25509836	          0.23705298	          0.08425659	          0.03424279	          0.17996875	          0.18599894	          0.16264961	
